<?xml version="1.0" encoding="UTF-8"?>
<svg version="1.1" xmlns="http://www.w3.org/2000/svg" width="1563" height="1563">
<path d="M0 0 C515.79 0 1031.58 0 1563 0 C1563 515.79 1563 1031.58 1563 1563 C1047.21 1563 531.42 1563 0 1563 C0 1047.21 0 531.42 0 0 Z " fill="#FEFEFE" transform="translate(0,0)"/>
<path d="M0 0 C0.5775 0.721875 1.155 1.44375 1.75 2.1875 C5.76953482 4.42916365 6.80123214 3.86004722 11.125 2.6875 C12.15882813 2.36136719 13.19265625 2.03523437 14.2578125 1.69921875 C17 1 17 1 20 2 C20.495 2.99 20.495 2.99 21 4 C24.2608674 4.09501362 27.48828636 4.12216177 30.74609375 3.95117188 C34.26953331 3.98712534 36.25368024 4.29883817 38.8762207 6.76269531 C40.71894939 9.1041639 42.37371283 11.50384396 44 14 C44.98736693 15.4094951 45.97561746 16.81837173 46.96484375 18.2265625 C47.95840828 19.6908941 48.94918721 21.15711876 49.9375 22.625 C54.92452452 29.97650497 59.97371099 37.28109428 65.0625 44.5625 C71.84811054 54.28410567 78.47529302 64.10172294 85 74 C81.95974596 76.02683603 80.32135341 76.43774871 76.8125 77.125 C62.93579896 80.48955598 51.18220256 88.40505215 40 97 C38.6696875 98.01900391 38.6696875 98.01900391 37.3125 99.05859375 C35.16847978 100.85855667 33.45882969 102.65437871 31.6875 104.8125 C29.33528247 107.59146974 26.98458563 109.87940094 24.125 112.125 C18.32184286 116.98372176 14.89731542 123.60596689 11 130 C17.27 130 23.54 130 30 130 C35.62272986 139.59171564 40.81856225 149.34929545 45.91625977 159.22949219 C50.20593345 167.52422844 54.62494738 175.74029219 59.12988281 183.91992188 C59.59491211 184.76490234 60.05994141 185.60988281 60.5390625 186.48046875 C60.94334473 187.21160889 61.34762695 187.94274902 61.76416016 188.69604492 C63.23295256 191.43428947 64.61037168 194.22074336 66 197 C66.33 174.89 66.66 152.78 67 130 C73.6 130 80.2 130 87 130 C87 164.32 87 198.64 87 234 C79.41 234 71.82 234 64 234 C60.17927149 230.06533326 59.5843585 228.87149019 58 224 C56.73757675 221.57347094 55.44727748 219.18482814 54.1171875 216.796875 C53.4194974 215.48539236 52.72564002 214.17186442 52.03540039 212.85644531 C49.81757322 208.64058078 47.59218667 204.42876765 45.36328125 200.21875 C44.99228806 199.51768127 44.62129486 198.81661255 44.23905945 198.09429932 C40.4152979 190.87837485 36.51067778 183.70782783 32.57958984 176.54980469 C32.13180176 175.73415039 31.68401367 174.91849609 31.22265625 174.078125 C30.83859619 173.38106445 30.45453613 172.68400391 30.05883789 171.96582031 C28.99908932 169.99830925 27.99941651 167.99883302 27 166 C26.67 188.44 26.34 210.88 26 234 C19.73 234 13.46 234 7 234 C7 201 7 168 7 134 C3.15252277 133.03813069 -0.30167852 132.69340973 -4.25 132.4375 C-5.51328125 132.35371094 -6.7765625 132.26992188 -8.078125 132.18359375 C-9.04234375 132.12300781 -10.0065625 132.06242188 -11 132 C-11 131.67 -11 131.34 -11 131 C-7.37 130.67 -3.74 130.34 0 130 C-12.1695318 126.82273308 -23.6213743 124.16802632 -35.9921875 127.66015625 C-38.28745003 128.04865399 -39.80173989 127.70482331 -42 127 C-26.80066372 122.16384755 -13.86950959 123.34860818 1 128 C2.33024925 128.34543569 3.66212265 128.68540013 5 129 C-0.80413913 120.12195824 -6.85575062 111.42204232 -12.92382812 102.72338867 C-16.97449974 96.91588452 -21.00257996 91.09425675 -25 85.25 C-31.91035862 74.63894647 -31.91035862 74.63894647 -40 65 C-39.34 65 -38.68 65 -38 65 C-38.061875 63.989375 -38.12375 62.97875 -38.1875 61.9375 C-38.14565233 50.07368414 -34.63411001 34.95116501 -28 25 C-27.34 25 -26.68 25 -26 25 C-25.731875 24.29875 -25.46375 23.5975 -25.1875 22.875 C-22.89106735 17.31521569 -20.7007672 13.25706658 -16.1875 9.1875 C-14.94033203 8.03314453 -14.94033203 8.03314453 -13.66796875 6.85546875 C-10.69678901 4.78912852 -8.57043871 4.31795148 -5 4 C-5 3.34 -5 2.68 -5 2 C-3.35 1.34 -1.7 0.68 0 0 Z " fill="#F9F9F9" transform="translate(441,549)"/>
<path d="M0 0 C0.75579346 -0.01015137 1.51158691 -0.02030273 2.2902832 -0.03076172 C7.75808124 0.05367845 11.91337205 1.28756102 16.9375 3.4375 C16.9375 2.7775 16.9375 2.1175 16.9375 1.4375 C22.8775 1.4375 28.8175 1.4375 34.9375 1.4375 C35.02819258 12.18247811 35.10144089 22.92719826 35.14474869 33.67247391 C35.16554365 38.66297988 35.19371198 43.65320836 35.23925781 48.64355469 C35.28300605 53.46762536 35.30669781 58.29143063 35.31700897 63.11568451 C35.32434868 64.94792605 35.33868017 66.78015454 35.36042023 68.6122818 C35.50746363 81.52848972 35.42893612 93.88437603 25.8671875 103.75390625 C16.29782989 112.10288019 6.35737334 113.80844155 -6.09375 113.72265625 C-14.46000978 113.12153719 -22.46579852 110.71486118 -29.0625 105.4375 C-27.12625702 99.23272136 -24.80640859 93.32924281 -22.0625 87.4375 C-21.31484375 87.85902344 -20.5671875 88.28054688 -19.796875 88.71484375 C-18.81203125 89.26269531 -17.8271875 89.81054688 -16.8125 90.375 C-15.83796875 90.92027344 -14.8634375 91.46554687 -13.859375 92.02734375 C-7.66376553 95.15110774 -0.36910585 95.66896409 6.328125 93.75390625 C9.83287563 92.18974903 11.64052822 90.85900834 13.875 87.6875 C15.1232319 83.86937888 15.59275247 80.43657139 15.9375 76.4375 C14.9475 77.0975 13.9575 77.7575 12.9375 78.4375 C5.51854556 82.15358948 -5.14103684 81.58879244 -13 79.375 C-22.87652724 75.34145643 -30.09816631 67.32072554 -34.4375 57.75 C-37.86603137 47.39207399 -37.93485438 33.79302765 -33.9375 23.625 C-29.09312611 14.05872236 -22.13741638 5.31265951 -11.984375 1.12890625 C-7.97591 0.1803791 -4.10888666 0.0393275 0 0 Z " fill="#393939" transform="translate(582.0625,702.5625)"/>
<path d="M0 0 C1.17428658 3.52285973 0.73260586 4.30314684 -0.5 7.6875 C-2.10153596 12.62254971 -2.02881297 15.94946359 -1 21 C0.32 19.68 1.64 18.36 3 17 C1.62411965 20.70429324 0.08109119 23.53151468 -2 27 C4.27 27 10.54 27 17 27 C22.62272986 36.59171564 27.81856225 46.34929545 32.91625977 56.22949219 C37.20593345 64.52422844 41.62494738 72.74029219 46.12988281 80.91992188 C46.59491211 81.76490234 47.05994141 82.60988281 47.5390625 83.48046875 C47.94334473 84.21160889 48.34762695 84.94274902 48.76416016 85.69604492 C50.23295256 88.43428947 51.61037168 91.22074336 53 94 C53.33 71.89 53.66 49.78 54 27 C60.6 27 67.2 27 74 27 C74 61.32 74 95.64 74 131 C66.41 131 58.82 131 51 131 C47.17927149 127.06533326 46.5843585 125.87149019 45 121 C43.73757675 118.57347094 42.44727748 116.18482814 41.1171875 113.796875 C40.4194974 112.48539236 39.72564002 111.17186442 39.03540039 109.85644531 C36.81757322 105.64058078 34.59218667 101.42876765 32.36328125 97.21875 C31.99228806 96.51768127 31.62129486 95.81661255 31.23905945 95.09429932 C27.4152979 87.87837485 23.51067778 80.70782783 19.57958984 73.54980469 C19.13180176 72.73415039 18.68401367 71.91849609 18.22265625 71.078125 C17.83859619 70.38106445 17.45453613 69.68400391 17.05883789 68.96582031 C15.99908932 66.99830925 14.99941651 64.99883302 14 63 C13.67 85.44 13.34 107.88 13 131 C6.73 131 0.46 131 -6 131 C-6 98 -6 65 -6 31 C-9.84747723 30.03813069 -13.30167852 29.69340973 -17.25 29.4375 C-18.51328125 29.35371094 -19.7765625 29.26992188 -21.078125 29.18359375 C-22.52445312 29.09271484 -22.52445312 29.09271484 -24 29 C-24 28.67 -24 28.34 -24 28 C-20.37 27.67 -16.74 27.34 -13 27 C-25.1695318 23.82273308 -36.6213743 21.16802632 -48.9921875 24.66015625 C-51.28745003 25.04865399 -52.80173989 24.70482331 -55 24 C-39.80066372 19.16384755 -26.86950959 20.34860818 -12 25 C-10.66975075 25.34543569 -9.33787735 25.68540013 -8 26 C-9.32 24.02 -10.64 22.04 -12 20 C-11.67 19.34 -11.34 18.68 -11 18 C-8.525 21.465 -8.525 21.465 -6 25 C-5.89042969 24.17757812 -5.78085937 23.35515625 -5.66796875 22.5078125 C-3.4516129 6.90322581 -3.4516129 6.90322581 0 0 Z " fill="#393939" transform="translate(454,652)"/>
<path d="M0 0 C0.75651855 -0.01023193 1.51303711 -0.02046387 2.29248047 -0.03100586 C7.46490831 0.05022159 11.12111407 1.1291799 15.75 3.4375 C15.75 2.7775 15.75 2.1175 15.75 1.4375 C21.69 1.4375 27.63 1.4375 33.75 1.4375 C33.77505615 3.28013428 33.8001123 5.12276855 33.82592773 7.02124023 C33.90968302 13.09619816 33.99795456 19.17107718 34.08933926 25.24592495 C34.14460165 28.9306019 34.19802679 32.61528673 34.24731445 36.30004883 C34.29490932 39.85327841 34.34725007 43.40640875 34.40294075 46.95952034 C34.4233865 48.31792811 34.44209585 49.67636312 34.45907402 51.03481865 C34.48306877 52.93139705 34.51370332 54.82788799 34.54467773 56.72436523 C34.56799416 58.34652199 34.56799416 58.34652199 34.59178162 60.00144958 C34.47758019 62.38501051 34.47758019 62.38501051 35.75 63.4375 C38.39 63.7675 41.03 64.0975 43.75 64.4375 C42.43 70.0475 41.11 75.6575 39.75 81.4375 C32.57843181 81.88572301 28.25450141 82.0025551 22.50390625 77.53125 C20.52881367 76.08473379 20.52881367 76.08473379 16.75 76.4375 C14.2234973 77.477872 14.2234973 77.477872 11.6875 78.875 C3.7309036 83.07464712 -4.15993555 83.69810075 -13.04296875 81.859375 C-21.88908316 78.76534452 -29.78362651 71.76672332 -34.2890625 63.5546875 C-39.37079835 52.35834266 -41.02313125 36.49061816 -36.625 24.75 C-35.5078125 22.53125 -35.5078125 22.53125 -34.25 20.4375 C-33.59644531 19.27734375 -33.59644531 19.27734375 -32.9296875 18.09375 C-27.98439236 9.98670879 -21.71949887 4.06151784 -12.5859375 1.09375 C-8.36527587 0.26345591 -4.29441431 0.04503407 0 0 Z " fill="#393939" transform="translate(671.25,702.5625)"/>
<path d="M0 0 C4.82550439 4.38021303 8.2131236 9.4700021 11.8125 14.875 C13.13955318 16.84577424 14.46771636 18.81580139 15.796875 20.78515625 C16.48330078 21.80367676 17.16972656 22.82219727 17.87695312 23.87158203 C22.03912208 30.0047505 26.2962265 36.07209464 30.54418945 42.14599609 C34.43452419 47.71792064 38.25753013 53.32761535 42 59 C47.57319 55.94619726 53.05030264 52.79021553 58.4453125 49.4296875 C64.02031828 46.30973014 69.54037706 44.41921127 75.8125 43.3125 C76.87005493 43.12469971 76.87005493 43.12469971 77.94897461 42.93310547 C90.61821844 40.79759481 102.94271376 42.47409784 115 47 C116.875 48.625 116.875 48.625 118 50 C117 52 117 52 114 53.0078125 C112.66734183 53.38261729 111.33394858 53.75481406 110 54.125 C95.59717237 58.41025967 82.91498162 65.10347928 70.6965332 73.79370117 C69.51733545 74.63215506 68.33033445 75.45969832 67.13745117 76.27856445 C63.869387 78.5438537 61.08556966 80.69962185 58.5625 83.8125 C55.49884624 87.46134605 52.25639421 90.83282522 48.85546875 94.16796875 C47.7127834 95.29622018 46.58628937 96.44150514 45.48828125 97.61328125 C44.37953362 98.79527947 43.19607152 99.90644889 42 101 C41.01 101 40.02 101 39 101 C37.73242188 99.69335938 37.73242188 99.69335938 36.46875 97.84375 C35.9936499 97.15917725 35.5185498 96.47460449 35.02905273 95.76928711 C34.52446533 95.02042236 34.01987793 94.27155762 33.5 93.5 C32.97027588 92.73115479 32.44055176 91.96230957 31.89477539 91.17016602 C30.25445946 88.78596034 28.62730594 86.39309697 27 84 C26.05211071 82.62278195 25.10295945 81.24643133 24.15234375 79.87109375 C21.87975028 76.58087259 19.61757255 73.28366649 17.35888672 69.98388672 C15.07719273 66.65276107 12.78817896 63.32667268 10.5 60 C9.59242729 58.67970168 8.68487525 57.35938915 7.77734375 56.0390625 C5.8540268 53.24138609 3.92934418 50.44465458 2.00390625 47.6484375 C1.51148438 46.93300781 1.0190625 46.21757813 0.51171875 45.48046875 C-0.4241235 44.12084887 -1.36029769 42.76145738 -2.296875 41.40234375 C-3.1405193 40.1763833 -3.98038569 38.94781196 -4.81591797 37.71630859 C-5.94678364 36.07713629 -7.13053378 34.47482796 -8.31640625 32.875 C-11.07001618 28.1727798 -10.12961287 24.15660941 -9 19 C-6.97651244 12.65756319 -3.27193543 8.90952515 2 5 C1.34 3.35 0.68 1.7 0 0 Z " fill="#E8E8E8" transform="translate(328,632)"/>
<path d="M0 0 C5.28 0 10.56 0 16 0 C16.33 24.09 16.66 48.18 17 73 C19.97 73.495 19.97 73.495 23 74 C21.515 80.435 21.515 80.435 20 87 C10.77808989 87.41292135 10.77808989 87.41292135 6 84 C4.01224124 83.02266343 4.01224124 83.02266343 2 83 C-0.00334686 84.31461399 -0.00334686 84.31461399 -2 86 C-8.49413189 89.12261394 -15.95622766 89.20250491 -22.82421875 87.16015625 C-31.40087753 83.25928694 -36.52672398 77.01274406 -40.18408203 68.47949219 C-41.55332846 64.31849076 -41.5802353 60.34607888 -41.5 56 C-41.51546875 55.16210938 -41.5309375 54.32421875 -41.546875 53.4609375 C-41.4884265 44.02150445 -37.50090425 35.79707301 -31 29 C-25.21889131 24.57915218 -20.51225665 22.84360711 -13.1875 22.75 C-11.98480469 22.72421875 -10.78210937 22.6984375 -9.54296875 22.671875 C-6 23 -6 23 0 26 C0 17.42 0 8.84 0 0 Z " fill="#0591FE" transform="translate(1039,693)"/>
<path d="M0 0 C0.78246094 -0.020625 1.56492187 -0.04125 2.37109375 -0.0625 C8.81610957 -0.10525301 14.19622355 1.0431516 19.546875 4.7578125 C26.25842204 11.63548694 29.50937665 19.43674073 29.48852539 29.02832031 C29.48841209 30.76967255 29.48841209 30.76967255 29.48829651 32.54620361 C29.48313522 33.79423767 29.47797394 35.04227173 29.47265625 36.328125 C29.4712413 37.60983582 29.46982635 38.89154663 29.46836853 40.21209717 C29.46455901 43.6118364 29.45474214 47.0115326 29.44366455 50.41125488 C29.43341674 53.883539 29.4288637 57.3558301 29.42382812 60.828125 C29.41311841 67.63543608 29.39553433 74.44271154 29.375 81.25 C22.775 81.25 16.175 81.25 9.375 81.25 C9.3656543 79.58501465 9.35630859 77.9200293 9.34667969 76.20458984 C9.30677467 70.02072504 9.24101292 63.83735745 9.16748047 57.65380859 C9.13707056 54.97854791 9.11805956 52.30389447 9.10400391 49.62841797 C9.08257097 45.78049079 9.03591483 41.93356476 8.984375 38.0859375 C8.98314636 36.89197357 8.98191772 35.69800964 8.98065186 34.46786499 C8.87030629 28.1963708 8.79484561 23.91883668 4.375 19.25 C-0.59837925 17.85264571 -5.36071697 18.62978568 -9.9375 20.875 C-10.824375 21.65875 -11.71125 22.4425 -12.625 23.25 C-13.65383301 24.04680176 -14.68266602 24.84360352 -15.74267578 25.66455078 C-19.34054892 29.30944952 -19.36219743 32.74805093 -19.45724487 37.70553589 C-19.44360397 39.33242844 -19.44360397 39.33242844 -19.4296875 40.9921875 C-19.44339386 42.11569611 -19.45710022 43.23920471 -19.47122192 44.39675903 C-19.50851102 47.97324708 -19.50480733 51.54834519 -19.5 55.125 C-19.51812733 57.5547092 -19.53893011 59.98440001 -19.5625 62.4140625 C-19.6143418 68.35960783 -19.62943099 74.30424105 -19.625 80.25 C-25.895 80.25 -32.165 80.25 -38.625 80.25 C-38.625 54.18 -38.625 28.11 -38.625 1.25 C-32.355 1.25 -26.085 1.25 -19.625 1.25 C-19.295 2.9 -18.965 4.55 -18.625 6.25 C-18.07070313 5.90066406 -17.51640625 5.55132813 -16.9453125 5.19140625 C-16.22085938 4.73636719 -15.49640625 4.28132812 -14.75 3.8125 C-14.03070312 3.36003906 -13.31140625 2.90757812 -12.5703125 2.44140625 C-8.41971917 -0.1006238 -4.7650341 0.03049622 0 0 Z " fill="#3A3A3A" transform="translate(890.625,702.75)"/>
<path d="M0 0 C6.27 0 12.54 0 19 0 C19.11319758 11.9529681 19.20482968 23.90557714 19.25906086 35.85896111 C19.28509602 41.41008376 19.32038308 46.96081901 19.37719727 52.51171875 C19.43173368 57.87395127 19.46146623 63.23581237 19.47438622 68.59830093 C19.48358732 70.63875292 19.50155479 72.67918578 19.52865028 74.71947861 C19.80642586 96.51313238 19.80642586 96.51313238 12.32148743 104.87521362 C6.67990284 110.48376676 -0.1816493 112.12925465 -7.9375 112.4375 C-13.57690898 112.27843975 -19.35058929 111.4017701 -24 108 C-25.72437444 103.70418999 -24.48167098 100.44501293 -23.0625 96.1875 C-22.68222656 95.02605469 -22.30195312 93.86460937 -21.91015625 92.66796875 C-21.45962891 91.34732422 -21.45962891 91.34732422 -21 90 C-18.82885203 90.49895947 -17.1203986 90.92942151 -15.1875 92.0625 C-11.12243801 93.80466943 -7.11394285 93.37131428 -3 92 C-0.53788973 87.72372523 -0.69418317 83.24494217 -0.68115234 78.44604492 C-0.67110672 77.59675415 -0.6610611 76.74746338 -0.65071106 75.87243652 C-0.61990748 73.07512059 -0.60285177 70.27790025 -0.5859375 67.48046875 C-0.56722358 65.53704508 -0.54765 63.59362951 -0.5272522 61.65022278 C-0.47594867 56.54245789 -0.43631336 51.43466667 -0.39910889 46.32678223 C-0.35905815 41.11166884 -0.30797066 35.89666486 -0.2578125 30.68164062 C-0.16107417 20.45449633 -0.07768294 10.22730681 0 0 Z " fill="#383838" transform="translate(731,704)"/>
<path d="M0 0 C0.33 0.66 0.66 1.32 1 2 C4.2608674 2.09501362 7.48828636 2.12216177 10.74609375 1.95117188 C14.26953331 1.98712534 16.25368024 2.29883817 18.8762207 4.76269531 C20.71894939 7.1041639 22.37371283 9.50384396 24 12 C24.98736693 13.4094951 25.97561746 14.81837173 26.96484375 16.2265625 C27.95840828 17.6908941 28.94918721 19.15711876 29.9375 20.625 C34.92452452 27.97650497 39.97371099 35.28109428 45.0625 42.5625 C51.84811054 52.28410567 58.47529302 62.10172294 65 72 C61.95974596 74.02683603 60.32135341 74.43774871 56.8125 75.125 C42.93579896 78.48955598 31.18220256 86.40505215 20 95 C19.113125 95.67933594 18.22625 96.35867188 17.3125 97.05859375 C15.16847978 98.85855667 13.45882969 100.65437871 11.6875 102.8125 C8.6575178 106.3639824 5.40148715 109.38792311 1.8515625 112.41015625 C-2.23476076 115.91887686 -5.71475785 119.74135277 -9 124 C-9 108.29604722 5.14921817 94.98559843 15.4375 84.25 C23.00817897 76.88246984 31.56398425 70.7418362 41 66 C40.41648307 61.72441228 37.86685008 58.61271132 35.4375 55.1875 C34.95861328 54.50171875 34.47972656 53.8159375 33.98632812 53.109375 C32.917596 51.5795421 31.84632145 50.0514832 30.77294922 48.52490234 C28.19027605 44.8468514 25.6266903 41.15560446 23.06152344 37.46533203 C21.68675008 35.48783355 20.31109823 33.51094551 18.93457031 31.53466797 C14.3826967 24.99883987 9.85389553 18.44784191 5.36132812 11.87109375 C3.69366937 9.43476932 2.02229953 7.0286153 0.20703125 4.69921875 C-1 3 -1 3 -1 1 C-2.93786085 1.47770523 -4.87527674 1.95721571 -6.8125 2.4375 C-8.43091797 2.83775391 -8.43091797 2.83775391 -10.08203125 3.24609375 C-12.0740843 3.76077412 -14.04811524 4.34937175 -16 5 C-16 4.01 -16 3.02 -16 2 C-13.89829344 1.46932659 -11.79352402 0.95077143 -9.6875 0.4375 C-8.51574219 0.14746094 -7.34398437 -0.14257812 -6.13671875 -0.44140625 C-3 -1 -3 -1 0 0 Z " fill="#D2D2D2" transform="translate(461,551)"/>
<path d="M0 0 C4.82550439 4.38021303 8.2131236 9.4700021 11.8125 14.875 C13.13955318 16.84577424 14.46771636 18.81580139 15.796875 20.78515625 C16.48330078 21.80367676 17.16972656 22.82219727 17.87695312 23.87158203 C22.03912208 30.0047505 26.2962265 36.07209464 30.54418945 42.14599609 C34.43452419 47.71792064 38.25753013 53.32761535 42 59 C47.57319 55.94619726 53.05030264 52.79021553 58.4453125 49.4296875 C64.02031828 46.30973014 69.54037706 44.41921127 75.8125 43.3125 C76.87005493 43.12469971 76.87005493 43.12469971 77.94897461 42.93310547 C90.77989114 40.77034348 102.74582455 42.67720805 115 47 C115 47.33 115 47.66 115 48 C111.535 48.495 111.535 48.495 108 49 C108 49.33 108 49.66 108 50 C106.87078125 50.02126953 106.87078125 50.02126953 105.71875 50.04296875 C80.30949323 51.18391839 60.16054744 65.49687899 41 81 C36.66663914 77.18458647 33.80900831 72.41465109 30.6875 67.6171875 C30.07793457 66.68891144 29.46836914 65.76063538 28.84033203 64.80422974 C26.88904942 61.83074452 24.94433484 58.85303185 23 55.875 C21.08931349 52.95782143 19.17727291 50.04153366 17.26513672 47.12530518 C16.00967091 45.21028198 14.75478367 43.29487935 13.50048828 41.37908936 C7.7179978 32.55189172 1.87049472 23.76884652 -4 15 C-6.82076058 19.23114087 -8.11332783 23.07342685 -7.8125 28.1875 C-6.97969962 31.07027055 -5.97460219 32.767841 -4 35 C-4.33 35.66 -4.66 36.32 -5 37 C-9.83970267 31.68813121 -9.83970267 31.68813121 -10.25 27.3671875 C-9.78224782 20.37039445 -8.22470138 14.23162134 -3.1796875 9.17578125 C-1.49554997 7.71324076 0.20885237 6.32826678 2 5 C1.34 3.35 0.68 1.7 0 0 Z " fill="#D6D6D6" transform="translate(328,632)"/>
<path d="M0 0 C1.39355469 1.37915039 1.39355469 1.37915039 2.671875 3.34765625 C3.16292725 4.0862085 3.65397949 4.82476074 4.15991211 5.58569336 C4.68464111 6.40303955 5.20937012 7.22038574 5.75 8.0625 C6.91147225 9.81595811 8.0742922 11.56852409 9.23828125 13.3203125 C9.85010254 14.24875977 10.46192383 15.17720703 11.09228516 16.13378906 C14.30000482 20.95316824 17.62212814 25.69184966 20.9375 30.4375 C21.60096436 31.39382324 22.26442871 32.35014648 22.94799805 33.33544922 C26.31038015 38.17776882 29.70505331 42.99176871 33.1640625 47.765625 C33.82027588 48.67900635 34.47648926 49.5923877 35.15258789 50.53344727 C36.39903523 52.26553585 37.65562017 53.99038692 38.92358398 55.70678711 C39.47602783 56.47772705 40.02847168 57.24866699 40.59765625 58.04296875 C41.08758057 58.71352295 41.57750488 59.38407715 42.08227539 60.07495117 C43 62 43 62 42.79174805 64.15136719 C41.56180001 67.02314226 39.48755364 67.66147451 36.75 69.0625 C29.3406134 73.17294542 23.26515635 78.32916678 17 84 C16.25878906 84.66902344 15.51757812 85.33804688 14.75390625 86.02734375 C5.04574548 95.26669998 -2.09778783 106.05876941 -8 118 C-8.33 118 -8.66 118 -9 118 C-7.46325632 95.7172166 3.87454814 78.84003142 20 64 C20.99 63.34 21.98 62.68 23 62 C22.36901918 58.63968241 21.12002809 56.40732854 19.18359375 53.60546875 C18.59175293 52.7431665 17.99991211 51.88086426 17.39013672 50.99243164 C16.7457666 50.0668042 16.10139648 49.14117676 15.4375 48.1875 C14.77508301 47.22642334 14.11266602 46.26534668 13.43017578 45.27514648 C11.29321146 42.17892819 9.14724941 39.0890926 7 36 C5.54024855 33.89330956 4.08061247 31.78653918 2.62109375 29.6796875 C-0.09510379 25.76423405 -2.81397465 21.85067815 -5.5390625 17.94140625 C-6.12977539 17.0920752 -6.72048828 16.24274414 -7.32910156 15.36767578 C-8.83978047 13.22703229 -10.39515418 11.12769099 -11.9609375 9.02734375 C-14 6 -14 6 -14 3 C-12.4188708 2.49307308 -10.83498617 1.99473557 -9.25 1.5 C-7.92742187 1.08234375 -7.92742187 1.08234375 -6.578125 0.65625 C-4 0 -4 0 0 0 Z " fill="#F0F0F0" transform="translate(460,552)"/>
<path d="M0 0 C6.6 0 13.2 0 20 0 C20 26.4 20 52.8 20 80 C13.4 80 6.8 80 0 80 C0 53.6 0 27.2 0 0 Z " fill="#3D3D3D" transform="translate(811,704)"/>
<path d="M0 0 C6.27 0 12.54 0 19 0 C19 26.07 19 52.14 19 79 C12.73 79 6.46 79 0 79 C0 52.93 0 26.86 0 0 Z " fill="#373737" transform="translate(771,704)"/>
<path d="M0 0 C0.88357178 0.36843018 1.76714355 0.73686035 2.67749023 1.11645508 C3.34208252 1.40157959 4.0066748 1.6867041 4.69140625 1.98046875 C4.93940559 7.13961801 5.12039017 12.29527663 5.24072266 17.45898438 C5.29088876 19.21317984 5.35904635 20.96695959 5.44580078 22.71972656 C6.14623143 37.23924189 6.14623143 37.23924189 2.60546875 41.47705078 C-2.98421141 44.97787911 -8.801164 46.28872152 -15.30859375 44.98046875 C-21.06265028 42.15772404 -26.01651837 37.05192176 -28.30859375 30.98046875 C-28.96536601 22.6215491 -29.69029561 13.37459064 -25.30859375 5.98046875 C-17.75533704 -2.02913055 -10.38084362 -4.38225455 0 0 Z " fill="#FCFCFC" transform="translate(681.30859375,722.01953125)"/>
<path d="M0 0 C2.23952044 0.99305282 4.45908352 2.0153117 6.66601562 3.07861328 C6.81468813 7.97146368 6.92337856 12.8629914 6.99560547 17.75756836 C7.02572108 19.42121286 7.06662412 21.0846993 7.11865234 22.74780273 C7.19170883 25.14362582 7.22552044 27.53734581 7.25195312 29.93408203 C7.28292084 30.67385788 7.31388855 31.41363373 7.34579468 32.17582703 C7.34765567 35.05177656 7.23953523 37.36466942 5.39581299 39.65982056 C0.41750237 43.96467653 -4.1321558 44.55197919 -10.47460938 44.48486328 C-15.15552189 43.8198156 -18.25121048 41.58707087 -21.33398438 38.07861328 C-25.01283796 32.74362098 -25.9494121 28.99549042 -25.77148438 22.57861328 C-25.77857422 21.85802734 -25.78566406 21.13744141 -25.79296875 20.39501953 C-25.71782572 14.00208168 -24.21853351 9.2607228 -19.95898438 4.32861328 C-13.8511384 -0.90668327 -7.87463024 -3.10866679 0 0 Z " fill="#FBFBFB" transform="translate(591.333984375,720.92138671875)"/>
<path d="M0 0 C4.95 0 9.9 0 15 0 C15 20.79 15 41.58 15 63 C10.05 63 5.1 63 0 63 C0 42.21 0 21.42 0 0 Z " fill="#018FFE" transform="translate(970,717)"/>
<path d="M0 0 C2.69859176 1.26760573 4.87862404 2.87862404 7 5 C7.42172571 9.4064985 7.46495222 13.82632183 7.5625 18.25 C7.62501953 19.49136719 7.68753906 20.73273437 7.75195312 22.01171875 C7.91072734 30.9511883 7.91072734 30.9511883 5.30444336 33.95263672 C0.960716 36.7589521 -2.80272308 37.94495944 -8 37 C-12.48415706 35.02280838 -15.2209969 32.22215573 -17.4375 27.875 C-19.89306292 21.53499056 -20.00738743 15.14067845 -17.9375 8.6875 C-13.13804311 2.03018883 -8.53565679 -1.87443643 0 0 Z " fill="#FBFDFE" transform="translate(1032,730)"/>
<path d="M0 0 C3.84403186 2.04798315 6.40226744 4.9569115 8 9 C8.24590892 13.58210297 7.55448599 17.14144105 5.0625 21 C1.30693527 24.64175974 -2.15843093 24.50548968 -7.2265625 24.4921875 C-11.22404131 23.78277577 -12.68965406 21.93880962 -14.9765625 18.7265625 C-17.03934961 15.24659341 -17.39329169 13.09023359 -17 9 C-12.8592521 1.45792346 -8.63034637 -1.61538546 0 0 Z " fill="#3B3B3B" transform="translate(745,674)"/>
<path d="M0 0 C5.91521256 4.63624768 5.91521256 4.63624768 6.6640625 8.73828125 C6.85002154 13.22665618 6.18644954 16.22006307 3.3125 19.8125 C-0.47699702 23.18367592 -3.27254716 23.37338501 -8.20703125 23.2421875 C-12.23128559 22.54507257 -13.93831366 20.77316221 -16.6875 17.8125 C-18.53860583 14.11028834 -18.15204795 9.85343083 -17.6875 5.8125 C-13.71687824 -0.99428016 -7.43483527 -3.28515977 0 0 Z " fill="#3A3A3A" transform="translate(826.6875,675.1875)"/>
<path d="M0 0 C3.8076546 2.01159111 7.04834016 4.09668033 9 8 C9.55335968 12.9011857 9.5327637 15.00795724 7.1875 19.375 C4.91262233 22.10485321 3.30924564 23.78592369 -0.26953125 24.37109375 C-4.75791286 24.48830187 -7.98845813 24.56577717 -11.5625 21.625 C-15.3057723 17.59378368 -15.39037018 14.90519941 -15.359375 9.55078125 C-14.78039966 5.44131496 -13.00085071 3.78650423 -10 1 C-6.78548618 -0.60725691 -3.48666924 -0.47397924 0 0 Z " fill="#3A3A3A" transform="translate(784,674)"/>
<path d="M0 0 C2.73657983 0.64013563 4.89554005 1.76364124 6.93359375 3.70703125 C9.1639102 7.37809957 8.78476742 11.37786672 8.00390625 15.46875 C6.34202755 18.43122942 5.13840529 19.149143 1.91015625 20.05859375 C-2.16628035 20.77197015 -4.2766837 20.88202811 -7.93359375 18.78125 C-11.06867173 15.26616256 -12.02101001 13.83914427 -11.93359375 9.03125 C-10.24589413 2.61799146 -6.88396628 -0.52250218 0 0 Z " fill="#0591FE" transform="translate(943.99609375,760.53125)"/>
<path d="M0 0 C2.71063933 1.75500374 3.35811285 3.04460313 5 6 C5.59077522 9.61849825 5.26276677 11.4219131 3.75 14.75 C1.11546066 18.13726487 -0.71804917 18.8363467 -4.9375 19.375 C-8.7368243 18.90977662 -10.28638434 17.63608379 -13 15 C-14.73558114 11.52883773 -14.45163663 7.79509584 -14 4 C-11.14399986 -1.32254571 -5.38805872 -1.14898829 0 0 Z " fill="#0691FE" transform="translate(982,694)"/>
<path d="M0 0 C1.32 1.32 2.64 2.64 4 4 C2.52387767 9.10452625 -0.58545714 11.93428308 -4.3125 15.5 C-4.88162109 16.05558594 -5.45074219 16.61117187 -6.03710938 17.18359375 C-7.15857721 18.27802275 -8.28278858 19.36964849 -9.40991211 20.45825195 C-11.63242137 22.61319529 -13.81681266 24.8053222 -16 27 C-17.33333333 28.33333333 -18.66666667 29.66666667 -20 31 C-18.52832621 26.44965231 -15.95737698 23.18997662 -12.875 19.625 C-12.38870117 19.05064209 -11.90240234 18.47628418 -11.40136719 17.88452148 C-8.5660275 14.59725881 -5.66785128 11.7617571 -2.25 9.0625 C-0.34269507 7.59843258 -0.34269507 7.59843258 1 6 C1.20827955 2.63776466 1.20827955 2.63776466 0 0 Z " fill="#747474" transform="translate(482,608)"/>
<path d="M0 0 C1.32005176 3.96015529 0.3399304 5.91181325 -0.875 9.875 C-3.02334094 16.95100409 -4.14854844 22.90571463 -4.0625 30.3125 C-4.05798828 31.05306641 -4.05347656 31.79363281 -4.04882812 32.55664062 C-4.03712175 34.37112899 -4.01918898 36.18557534 -4 38 C-5.65 36.68 -7.3 35.36 -9 34 C-8.34 34 -7.68 34 -7 34 C-7.061875 32.989375 -7.12375 31.97875 -7.1875 30.9375 C-7.16863613 20.29827717 -3.99988405 9.76621437 0 0 Z " fill="#545454" transform="translate(410,580)"/>
<path d="M0 0 C0.66 0.33 1.32 0.66 2 1 C-11.06930693 16.35643564 -11.06930693 16.35643564 -16 18 C-12.59573688 10.5272273 -6.25350037 5.10489826 0 0 Z " fill="#858585" transform="translate(388,711)"/>
<path d="M0 0 C0.66 0.33 1.32 0.66 2 1 C-3.03320206 6.77505724 -8.03739811 12.17917294 -14 17 C-14 14 -14 14 -12.71484375 12.37426758 C-12.12832031 11.80345459 -11.54179687 11.2326416 -10.9375 10.64453125 C-10.30585938 10.02255859 -9.67421875 9.40058594 -9.0234375 8.75976562 C-8.35570312 8.11716797 -7.68796875 7.47457031 -7 6.8125 C-6.33226562 6.15830078 -5.66453125 5.50410156 -4.9765625 4.83007812 C-3.32421559 3.21313865 -1.66528399 1.60359509 0 0 Z " fill="#757575" transform="translate(475,648)"/>
<path d="M0 0 C1 2 1 2 1 5 C1.99 4.67 2.98 4.34 4 4 C2.55186408 7.37898381 0.67059273 9.49631932 -2 12 C-2.66 12.66 -3.32 13.32 -4 14 C-3.66009167 8.62007164 -3.31442207 4.46726453 0 0 Z " fill="#8E8E8E" transform="translate(456,661)"/>
<path d="M0 0 C1.15803038 3.47409115 0.78628483 4.26899339 -0.375 7.625 C-1.93143486 12.45776579 -2.59242543 16.94607534 -3 22 C-5.17500023 18.73749965 -5.14598096 17.81785047 -4.48828125 14.109375 C-3.38409131 9.33927446 -2.19589807 4.39179613 0 0 Z " fill="#5F5F5F" transform="translate(454,652)"/>
</svg>
